<svg xmlns="http://www.w3.org/2000/svg" viewBox="0 0 500 500">
    <svg xmlns="http://www.w3.org/2000/svg" viewBox="0 0 500 500">
        <polygon points="250, 0 500, 250 250, 500 0, 250" stroke="black" fill="green"/>
        <polygon points="100, 150 150, 100 400, 350 350, 400" fill="white"/>
        <polygon points="100, 350 350, 100 400, 150 150, 400"  fill="white"/>
        <path d="M250 0 A 250 250, 0,0, 1, 0 250" stroke="black" fill="white" stroke-width="10"/>
        <path d="M250 0 A 250 250, 0,0, 0, 500 250" stroke="black" fill="white" stroke-width="10"/>
        <path d="M500 250 A 250 250, 0,0, 0, 250 500" stroke="black" fill="white" stroke-width="10"/>
        <path d="M250 500 A 250 250, 0,0, 0, 0 250" stroke="black" fill="white" stroke-width="10"/>
        <path d="M400 150 L 150 400" stroke="black" fill="white" stroke-width="10"/>
        <path d="M100 350 L 350 100" stroke="black" fill="white" stroke-width="10"/>
        <path d="M150 100 L 400 350" stroke="black" fill="white" stroke-width="10"/>
        <path d="M100 150 L 350 400" stroke="black" fill="white" stroke-width="10"/>
        <polygon points="250, 200 300, 250 250, 300 200, 250" stroke="black" fill="green" stroke-width="10"/>
        <path d="M100 150 A25 25,0,0,1, 150 100" stroke="black" fill="white" stroke-width="10"/>
        <path d="M400 350 A25 25,0,0,1, 350 400" stroke="black" fill="white" stroke-width="10"/>
        <path d="M100 350 A25 25,0,0,0, 150 400" stroke="black" fill="white" stroke-width="10"/>
        <path d="M 350 100 A25 25,0,0,1, 400 150" stroke="black" fill="white" stroke-width="10"/>
    </svg>
</svg>